<?xml version="1.0" encoding="UTF-8"?>
<svg id="Capa_1" xmlns="http://www.w3.org/2000/svg" version="1.1" viewBox="0 0 236.28 91.89">
  <!-- Generator: Adobe Illustrator 30.1.0, SVG Export Plug-In . SVG Version: 2.1.1 Build 136)  -->
  <defs>
    <style>
      .st0 {
        fill: #fbfbfc;
      }

      .st1 {
        fill: #575756;
      }
    </style>
  </defs>
  <path class="st1" d="M62.34,71.54c-3.03,3.57-6.41,6.17-10.9,7.69-2.23.76-4.51,1.08-6.87,1.14-5.33.13-10.5-1.71-13.78-6.01-1.82-2.38-2.73-5.23-2.53-8.24.24-3.63,2.33-6.67,5-8.96l1.55-1.32-.26-2.49-2.1,1.26c-1.39.83-2.83,1.48-4.36,2.04-2.09.77-4.29,1.14-6.49,1.1-6.28-.11-11.29-4.9-11.69-11.14-.15-2.31.07-4.57,1.01-6.73.74-1.71,1.76-3.26,3.11-4.57,3.52-3.41,8.15-5.22,13.08-5.34,3.9-.09,7.68.71,11.35,2.08,2.29-5.7,7.04-11.4,12.05-14.92,6.2-4.3,14.52-5.85,20.51-.34,2.39,2.2,3.9,5.12,4.15,8.37.2,2.62-.57,5.03-2.14,7.1-2.29,2.99-5.39,4.77-8.83,6.24l-6.17,2.65c-1.48.63-2.86,1.18-4.29,1.9l1.06.99,1.08-.53c2.22-1.09,4.42-1.98,6.81-2.71l11.44-3.47c4.02-1.22,7.05-2.26,11.39-1.65,3.33.47,6.08,2.43,7.63,5.43s1.9,6.24,1.05,9.4c-1.54,5.76-6.27,9.47-12.09,10.37-4.64.71-9.31.13-13.74-1.52-1.16,4.69-2.88,8.51-6.01,12.2ZM60.02,33.74c0,1.85-.6,3.39-1.7,4.79-1.23,1.55-2.77,2.76-4.42,3.87.41-.04.69-.27,1.04-.48,2.79-1.71,5.69-3.09,8.68-4.41l3.84-1.7c1.92-.85,3.56-2.1,4.91-3.71,3.24-3.85,2.42-8.91-.72-12.59-1.72-2.01-3.96-3.41-6.51-4.12-2.16-.6-4.31-.46-6.42.25-7.47,2.51-13.06,11.88-14.94,19.22,1.92,1.4,3.72,2.85,5.51,4.39l3.67,3.17c2.61-1.83,4.78-3.79,5.78-6.84,1.05-3.07.02-6.88-3.04-8.27.93-.01,1.69.46,2.3,1.11,1.35,1.43,2.01,3.29,2.01,5.33ZM28.01,33.18c-3.41.31-6.5,2.46-8.62,4.91-2.52,2.9-2.54,6.95.54,9.55,1.98,1.68,4.61,1.88,6.93.63-.7,1.03-1.92,1.33-3.08,1.4-2.34.14-4.47-1.04-5.8-2.8-1.45-1.92-1.74-4.34-.96-6.6,1.39-4,5.73-7.07,9.77-7.6-5.41-.51-10.44.71-13.87,5.13-2.09,2.69-2.99,6.19-2.18,9.54.9,3.72,3.61,6.77,7.11,8.24,3.83,1.6,7.95.82,11.65-.65,1.77-.7,3.44-1.47,5.04-2.54-.37-5.64.49-11.22,2.51-16.51-2.06-1.13-6.78-2.91-9.04-2.7ZM83.82,51.23c1.3-2.16.82-4.79-.93-6.54-1.15-1.16-2.59-1.72-4.28-1.48,2.6-1.16,5.56.87,6.51,3.34.88,2.3.27,4.81-1.43,6.57-2.82,2.91-7.55,3.7-11.48,4l2.61.96c5.75,2.12,12.49,1.28,16.64-3.6,3.48-4.08,3.48-10.18-.31-14.16s-8.43-3.98-13.29-2.9c-1.87.42-3.62.97-5.46,1.52l-7.78,2.33c-3.13.94-6.14,1.99-9.1,3.5l7.8,6.75c.15-1.22.11-2.35-.09-3.49-.2-1.01-.78-1.7-1.67-2.34l11.3-.05c-.93.54-1.81.89-2.34,1.79-.44.76-.65,1.62-.77,2.5l-.73,5.52c.82.39,1.7,1.06,2.61,1.13,1.77-.01,3.43-.53,5.11-1.01,2.4-.69,5.75-2.15,7.06-4.34ZM48.98,44.5l-6.51-5.5c-.84,3.28-1.27,6.58-1.36,10l7.87-4.5ZM41.24,51.56c3.33-1.96,6.53-3.61,9.91-5.11l-1.45-1.26-8.58,5.01c-.01.5-.03.94.12,1.35ZM45.83,64.64c1.86,1.87,4.24,2.83,6.9,2.65,4.19-.29,6.9-3.33,8.42-7,.54-1.3.96-2.61,1.33-3.97l-4.62-3.88-6.21-5.46c-.58.55-1.14,1.06-1.63,1.67-1.11,1.36-1.61,3.15-1.17,4.85s1.82,2.98,3.47,3.46c-1.35.13-2.47-.62-3.28-1.53-1.05-1.18-1.43-2.7-1.17-4.26.24-1.46,1.08-2.5,2.14-3.56l-8.79,5.24c.15,4.47,1.44,8.6,4.61,11.79ZM60.15,65.58c-2.94,2.49-5.38,4.1-9.37,4.15-5.69.14-10.96-2.8-13.78-7.73-.99-1.73-1.62-3.53-2.06-5.57-3.34,2.62-5.89,5.84-5.8,10.28.42,5.64,5.12,10.04,10.4,11.3,2.66.63,5.37.59,8-.13,6.26-1.71,10.34-6.44,12.62-12.29Z"/>
  <path class="st0" d="M24.05,26.45l-1.57,3.25-1.75-3.48-3.59-1.88c1.18-.7,2.3-1.24,3.52-1.82l1.79-3.64,1.7,3.52,3.73,1.9-3.36,1.71c-.14.07-.34.28-.47.44Z"/>
  <path class="st0" d="M99.61,79.11l-1.01-2.1c-.1-.21-.35-.44-.57-.55l-2.15-1.13,2.48-1.43c.55-.61.71-1.51,1.21-2.28l1.11,2.26,2.76,1.38-2.24,1.2c-.22.12-.47.32-.58.55l-1.01,2.09Z"/>
  <g>
    <path class="st1" d="M114.27,41.94h-12.64c0-.31.02-1.5.02-3.58,0-2.08,0-4.37,0-6.86v-4.21c0-1.6,0-2.93-.01-3.99.42,0,1.27,0,2.56,0,1.29,0,2.47,0,3.54,0s2.27,0,3.58,0c1.31,0,2.24,0,2.8,0v5.04c-.41,0-.81,0-1.22,0-.4,0-1,0-1.77,0h-3.02c0,.32.01.71.01,1.16v1.27h2.71c.5,0,1.01,0,1.52,0,.51,0,1.02,0,1.53,0v3.59h-5.76v1.37c0,.53,0,.93-.01,1.19.41,0,.94-.01,1.59,0,.65,0,1.15,0,1.5,0h3.08v5.02Z"/>
    <path class="st1" d="M130.39,32.69c0,1.51-.26,2.87-.79,4.11-.53,1.23-1.27,2.26-2.21,3.07-.76.65-1.69,1.17-2.78,1.57-1.1.4-2.43.59-4,.59-.9,0-1.96-.01-3.18-.04s-1.95-.05-2.18-.06c0-.85,0-2.17,0-3.93,0-1.77,0-3.61,0-5.52,0-1.27,0-2.8,0-4.57,0-1.77,0-3.31,0-4.61.27,0,.93,0,1.99-.03,1.06-.02,2.1-.03,3.13-.03,1.61,0,2.99.18,4.14.54,1.16.36,2.14.89,2.96,1.6.97.86,1.71,1.89,2.19,3.09s.73,2.6.73,4.23ZM123.36,32.35c0-.74-.04-1.58-.12-2.49-.08-.92-.21-1.46-.4-1.64-.13-.15-.28-.26-.45-.34-.17-.08-.36-.12-.57-.12h-.15v9.34h.13c.17,0,.35-.04.55-.1.2-.07.35-.17.45-.29.21-.47.36-1.14.44-2,.08-.86.12-1.64.12-2.36Z"/>
    <path class="st1" d="M146.21,23.3c0,1.69,0,2.94,0,3.76,0,.82,0,1.63,0,2.44,0,1.04,0,2.02.01,2.96s.01,1.65.01,2.15c0,1.3-.2,2.46-.61,3.48-.41,1.02-.96,1.8-1.66,2.35-.83.65-1.66,1.11-2.48,1.39s-1.77.42-2.83.42c-1.24,0-2.31-.18-3.19-.53s-1.64-.81-2.28-1.36c-.78-.67-1.33-1.48-1.64-2.43-.32-.95-.47-2.1-.47-3.45v-11.18h6.72c0,1.48,0,2.7,0,3.65,0,.95,0,1.76,0,2.45v4.84c0,.98.07,1.65.22,2,.15.35.37.53.65.53.3,0,.51-.18.65-.53.13-.35.2-1.02.2-1.99v-4.86c0-.68,0-1.46,0-2.34,0-.88,0-2.13,0-3.76h6.72Z"/>
    <path class="st1" d="M162.69,41.48l-6.8.66c-.05-.58-.1-1.22-.16-1.92-.06-.71-.13-1.36-.2-1.96h-1.9c-.06.59-.12,1.25-.19,1.98-.07.72-.13,1.36-.17,1.91l-6.73-.73c.34-1.44.99-4.28,1.94-8.54.95-4.25,1.67-7.45,2.16-9.58h7.95c.54,2.26,1.28,5.51,2.21,9.74.94,4.23,1.56,7.05,1.88,8.45ZM155.19,34.42c-.1-.68-.19-1.65-.28-2.89-.09-1.24-.17-2.2-.25-2.86l-.14-.02c-.08.67-.17,1.63-.27,2.9-.1,1.27-.19,2.22-.26,2.87v.03s1.2,0,1.2,0v-.03Z"/>
    <path class="st1" d="M178.87,40.99l-6.77,1.16c-.27-1.37-.58-2.78-.93-4.22s-.74-2.75-1.17-3.93l.11-.31c.17-.02.32-.13.43-.32s.2-.41.27-.65c.09-.4.15-.73.19-.99.03-.26.05-.58.05-.96,0-.45-.03-.88-.08-1.27s-.13-.74-.23-1.06c-.09-.15-.19-.26-.3-.32-.11-.06-.24-.1-.41-.1h-.25c0,.58.01,1.18,0,1.8,0,.61,0,1.82,0,3.63v5.36c0,1.29,0,2.33.01,3.12h-6.72c0-.67,0-1.58,0-2.75s.01-3.57.01-7.2c0-1.64,0-3.34,0-5.09,0-1.75,0-2.95,0-3.6.51,0,1.02-.02,1.52-.03s1.07-.01,1.7-.01c2.04,0,3.61.05,4.71.15,1.1.1,2.07.28,2.93.55,1.26.43,2.25,1.12,2.96,2.08.71.96,1.07,1.94,1.07,2.94,0,.95-.13,1.8-.4,2.56-.26.76-.64,1.36-1.13,1.8v.11c.29.83.64,1.96,1.07,3.41.43,1.45.88,2.83,1.36,4.13Z"/>
    <path class="st1" d="M194.36,32.69c0,1.51-.26,2.87-.79,4.11-.53,1.23-1.27,2.26-2.21,3.07-.76.65-1.69,1.17-2.78,1.57s-2.43.59-3.99.59c-.9,0-1.96-.01-3.18-.04-1.22-.03-1.95-.05-2.18-.06,0-.85,0-2.17,0-3.93s0-3.61,0-5.52c0-1.27,0-2.8,0-4.57,0-1.77,0-3.31,0-4.61.27,0,.93,0,1.99-.03s2.1-.03,3.13-.03c1.61,0,2.99.18,4.14.54,1.16.36,2.14.89,2.96,1.6.97.86,1.71,1.89,2.19,3.09.49,1.19.73,2.6.73,4.23ZM187.33,32.35c0-.74-.04-1.58-.12-2.49-.08-.92-.21-1.46-.4-1.64-.13-.15-.28-.26-.45-.34-.17-.08-.36-.12-.57-.12h-.15v9.34h.12c.17,0,.35-.04.55-.1.2-.07.35-.17.45-.29.21-.47.36-1.14.44-2,.08-.86.12-1.64.12-2.36Z"/>
    <path class="st1" d="M210.76,32.62c0,1.42-.18,2.76-.54,4.03-.36,1.27-.97,2.36-1.83,3.29-.76.83-1.6,1.42-2.53,1.78-.92.36-1.95.54-3.08.54s-2.19-.2-3.19-.61-1.85-1.02-2.56-1.86c-.84-.99-1.43-2.09-1.77-3.28-.33-1.2-.5-2.49-.5-3.87,0-1.48.18-2.83.53-4.04s.96-2.31,1.81-3.31c.65-.76,1.45-1.34,2.42-1.73.96-.39,2.03-.59,3.22-.59,1.11,0,2.14.18,3.08.54.94.36,1.81.96,2.62,1.8.82.86,1.41,1.93,1.78,3.19.37,1.27.55,2.64.55,4.11ZM203.79,32.63c0-.62-.03-1.3-.08-2.02-.05-.73-.14-1.38-.27-1.98-.08-.27-.18-.47-.28-.59s-.24-.19-.41-.19c-.18,0-.32.06-.43.18-.11.12-.2.33-.29.63-.12.37-.21.97-.27,1.78-.06.82-.08,1.54-.08,2.17,0,.75.03,1.45.08,2.09.06.64.15,1.28.27,1.92.08.23.18.42.29.56.11.14.25.21.41.21.18,0,.32-.07.42-.21.1-.14.2-.33.28-.57.12-.63.21-1.27.27-1.92.06-.65.08-1.34.08-2.07Z"/>
    <path class="st1" d="M115.74,57.81c0,.51.01,1.25,0,2.21,0,.96,0,1.79,0,2.47v4.78c-.21.03-.71.07-1.48.11s-1.46.06-2.05.06c-1.31,0-2.65-.15-4.01-.45-1.36-.3-2.65-.94-3.87-1.93-.95-.8-1.68-1.82-2.21-3.07s-.79-2.59-.79-4.02c0-1.33.22-2.56.65-3.7.43-1.14,1.07-2.1,1.91-2.88,1.07-1.03,2.3-1.78,3.69-2.24,1.39-.46,3.11-.7,5.16-.7h.88l.84,5.69h-1c-.33,0-.83.07-1.48.22-.65.15-1.2.36-1.66.64-.67.45-1.17.96-1.5,1.54-.33.58-.5,1.27-.5,2.05,0,.65.05,1.22.15,1.7.1.48.23,1,.39,1.54.09.27.22.48.37.62.15.14.34.22.56.24v-4.9h5.94Z"/>
    <path class="st1" d="M132.21,57.96c0,1.42-.18,2.76-.54,4.03-.36,1.27-.97,2.36-1.83,3.29-.76.83-1.6,1.42-2.53,1.78-.92.36-1.95.54-3.08.54s-2.19-.2-3.19-.61c-.99-.4-1.85-1.02-2.56-1.86-.84-.99-1.43-2.09-1.77-3.28-.33-1.2-.5-2.49-.5-3.87,0-1.48.18-2.83.53-4.04.35-1.21.96-2.31,1.81-3.31.65-.76,1.45-1.34,2.42-1.73s2.03-.59,3.22-.59c1.11,0,2.14.18,3.08.54s1.81.96,2.62,1.8c.82.86,1.41,1.93,1.77,3.19s.55,2.64.55,4.11ZM125.24,57.97c0-.62-.03-1.3-.08-2.02s-.14-1.38-.27-1.98c-.08-.27-.18-.47-.28-.59-.1-.13-.24-.19-.41-.19-.18,0-.32.06-.43.18-.11.12-.2.33-.29.63-.12.37-.21.97-.27,1.78-.06.82-.08,1.54-.08,2.17,0,.75.03,1.45.08,2.09.06.64.14,1.28.27,1.92.08.23.18.42.29.56.11.14.25.21.41.21.18,0,.32-.07.42-.21.1-.14.2-.33.28-.57.12-.63.21-1.27.27-1.92.06-.65.08-1.34.08-2.07Z"/>
    <path class="st1" d="M145.14,61.46c-.15.95-.27,1.91-.37,2.9-.1.98-.21,2.03-.34,3.13h-.77c-1.76,0-3.27-.2-4.51-.58s-2.41-1.07-3.49-2.03c-1-.87-1.73-1.88-2.19-3.01-.45-1.13-.68-2.43-.68-3.89,0-1.62.33-3.11,1-4.44.66-1.34,1.57-2.39,2.71-3.15,1.12-.75,2.3-1.27,3.54-1.54,1.23-.27,2.48-.41,3.74-.41h.58c.07.67.17,1.59.29,2.76.12,1.17.26,2.26.43,3.29-.09,0-.2,0-.33,0-.12,0-.24,0-.34,0-.3.03-.71.09-1.23.18-.52.09-.97.23-1.36.4-.66.32-1.18.72-1.55,1.22s-.56,1.06-.56,1.69c0,.8.19,1.42.56,1.86s.85.78,1.45,1.03c.39.16.84.29,1.36.4.52.11.94.17,1.29.17.17,0,.32.01.45.01h.33Z"/>
    <path class="st1" d="M161.36,67.28h-6.72v-7.08h-1.87v3.68c0,1.74,0,2.88.01,3.4h-6.72c0-.59,0-1.57,0-2.93s.01-3.51.01-6.44v-5.69c0-1.49,0-2.68-.01-3.58h6.72c0,1.05,0,2.11,0,3.17,0,1.07,0,2.19,0,3.37h1.87c0-1.03.01-2.11,0-3.25,0-1.14,0-2.23,0-3.29h6.72c0,1.87.01,3.64.01,5.29v9.17c0,2.18,0,3.57-.01,4.18Z"/>
    <path class="st1" d="M169.39,67.28h-6.81v-9.91c0-1.23,0-2.6,0-4.11,0-1.52,0-3.06,0-4.61h6.81c0,1.38,0,2.85-.01,4.41,0,1.56-.01,3.06-.01,4.5,0,1.69,0,3.4.02,5.14.01,1.74.02,3.27,0,4.59Z"/>
    <path class="st1" d="M182.63,61.46c-.15.95-.27,1.91-.37,2.9-.1.98-.21,2.03-.34,3.13h-.77c-1.76,0-3.27-.2-4.51-.58s-2.41-1.07-3.49-2.03c-1-.87-1.73-1.88-2.19-3.01-.45-1.13-.68-2.43-.68-3.89,0-1.62.33-3.11,1-4.44.66-1.34,1.57-2.39,2.71-3.15,1.12-.75,2.3-1.27,3.54-1.54,1.23-.27,2.48-.41,3.74-.41h.58c.07.67.17,1.59.29,2.76.12,1.17.26,2.26.43,3.29-.09,0-.2,0-.33,0s-.24,0-.34,0c-.3.03-.71.09-1.22.18-.52.09-.97.23-1.36.4-.66.32-1.18.72-1.55,1.22-.38.5-.56,1.06-.56,1.69,0,.8.19,1.42.56,1.86s.85.78,1.45,1.03c.39.16.84.29,1.36.4.51.11.94.17,1.29.17.17,0,.32.01.45.01h.33Z"/>
    <path class="st1" d="M199.23,57.96c0,1.42-.18,2.76-.54,4.03s-.97,2.36-1.83,3.29c-.76.83-1.6,1.42-2.53,1.78-.92.36-1.95.54-3.08.54s-2.19-.2-3.19-.61c-.99-.4-1.85-1.02-2.56-1.86-.84-.99-1.43-2.09-1.77-3.28-.33-1.2-.5-2.49-.5-3.87,0-1.48.18-2.83.53-4.04.35-1.21.96-2.31,1.81-3.31.65-.76,1.45-1.34,2.42-1.73.96-.39,2.03-.59,3.22-.59,1.11,0,2.14.18,3.08.54.94.36,1.81.96,2.62,1.8.82.86,1.41,1.93,1.78,3.19.37,1.27.55,2.64.55,4.11ZM192.26,57.97c0-.62-.03-1.3-.08-2.02-.05-.72-.14-1.38-.27-1.98-.08-.27-.18-.47-.28-.59-.1-.13-.24-.19-.41-.19-.18,0-.32.06-.43.18-.11.12-.2.33-.29.63-.12.37-.21.97-.27,1.78-.06.82-.08,1.54-.08,2.17,0,.75.03,1.45.08,2.09.06.64.15,1.28.27,1.92.08.23.18.42.29.56.11.14.25.21.41.21.18,0,.32-.07.42-.21.1-.14.2-.33.28-.57.12-.63.21-1.27.27-1.92.06-.65.08-1.34.08-2.07Z"/>
    <path class="st1" d="M215.46,66.82l-6.8.66c-.04-.58-.1-1.22-.16-1.92s-.13-1.36-.2-1.96h-1.9c-.06.59-.12,1.25-.19,1.98-.07.72-.13,1.36-.17,1.91l-6.73-.73c.34-1.44.99-4.28,1.94-8.54.95-4.25,1.67-7.45,2.16-9.58h7.95c.54,2.26,1.28,5.51,2.21,9.74.94,4.23,1.56,7.05,1.88,8.45ZM207.96,59.76c-.1-.68-.19-1.65-.28-2.89s-.17-2.2-.25-2.86l-.14-.02c-.08.67-.17,1.63-.27,2.9-.1,1.27-.19,2.22-.26,2.87v.03s1.2,0,1.2,0v-.03Z"/>
  </g>
</svg>